<?xml version="1.0" encoding="UTF-8" ?>
<!DOCTYPE svg PUBLIC "-//W3C//DTD SVG 1.1//EN" "http://www.w3.org/Graphics/SVG/1.1/DTD/svg11.dtd">
<svg width="480pt" height="480pt" viewBox="0 0 480 480" version="1.1" xmlns="http://www.w3.org/2000/svg">
<path fill="#ffffff" stroke="#ffffff" stroke-width="0.09375" opacity="1.00" d=" M 241.4 31.4 C 251.3 20.3 266.0 13.1 281.0 13.3 C 301.4 12.6 321.3 25.3 330.1 43.6 C 334.2 51.8 336.2 60.9 335.7 70.0 C 335.9 93.4 319.0 115.3 296.6 121.9 C 293.6 137.3 290.5 152.7 288.2 168.3 C 294.6 172.9 300.8 179.6 300.7 187.9 C 301.4 195.3 297.2 202.2 291.4 206.4 C 277.9 216.3 257.3 214.4 245.8 202.2 C 240.6 196.9 237.8 188.6 240.8 181.5 C 243.2 174.7 249.4 170.3 255.5 166.9 C 257.0 150.6 255.9 134.2 256.4 117.8 C 252.2 114.9 247.8 112.2 244.3 108.5 C 232.8 97.7 226.7 81.7 227.5 66.0 C 228.1 53.3 233.0 40.9 241.4 31.4 M 272.4 18.6 C 263.9 20.5 255.7 24.3 249.1 30.1 C 237.6 40.2 231.3 55.8 232.0 71.0 C 232.6 87.1 241.3 102.7 254.9 111.2 C 257.4 113.0 260.9 114.6 261.0 118.0 C 261.2 135.0 261.1 151.9 259.7 168.8 C 258.0 171.5 254.7 172.4 252.2 174.3 C 247.1 177.6 243.3 183.8 244.2 190.0 C 245.8 197.8 252.6 203.5 259.8 206.1 C 270.5 209.9 284.0 208.7 291.8 199.8 C 297.5 194.3 297.6 184.5 292.6 178.5 C 290.4 175.3 287.0 173.4 284.3 170.8 C 283.3 167.3 284.2 163.5 284.8 160.0 C 286.8 147.8 289.4 135.7 291.4 123.5 C 291.8 120.5 293.7 117.7 296.7 116.9 C 312.0 112.2 324.4 99.4 328.9 84.1 C 331.7 76.7 331.1 68.7 330.8 60.9 C 328.6 47.6 321.6 34.6 310.2 26.9 C 299.4 19.0 285.5 16.4 272.4 18.6 Z" />
<path fill="#000000" stroke="#000000" stroke-width="0.09375" opacity="1.00" d=" M 272.4 18.6 C 285.5 16.4 299.4 19.0 310.2 26.9 C 321.6 34.6 328.6 47.6 330.8 60.9 C 331.1 68.7 331.7 76.7 328.9 84.1 C 324.4 99.4 312.0 112.2 296.7 116.9 C 293.7 117.7 291.8 120.5 291.4 123.5 C 289.4 135.7 286.8 147.8 284.8 160.0 C 284.2 163.5 283.3 167.3 284.3 170.8 C 287.0 173.4 290.4 175.3 292.6 178.5 C 297.6 184.5 297.5 194.3 291.8 199.8 C 284.0 208.7 270.5 209.9 259.8 206.1 C 252.6 203.5 245.8 197.8 244.2 190.0 C 243.3 183.8 247.1 177.6 252.2 174.3 C 254.7 172.4 258.0 171.5 259.7 168.8 C 261.1 151.9 261.2 135.0 261.0 118.0 C 260.9 114.6 257.4 113.0 254.9 111.2 C 241.3 102.7 232.6 87.1 232.0 71.0 C 231.3 55.8 237.6 40.2 249.1 30.1 C 255.7 24.3 263.9 20.5 272.4 18.6 Z" />
<path fill="#ffffff" stroke="#ffffff" stroke-width="0.09375" opacity="1.00" d=" M 146.2 162.2 C 155.3 152.4 169.5 147.6 182.7 149.9 C 194.5 152.1 206.3 154.2 218.0 156.5 C 211.4 160.7 205.3 166.6 202.8 174.2 C 195.0 197.5 187.2 220.9 179.4 244.2 C 175.8 254.0 182.5 265.7 192.7 267.8 C 232.4 276.3 272.2 284.7 312.0 293.2 C 323.1 295.7 335.1 287.2 336.4 275.8 C 339.4 249.2 342.5 222.6 345.4 195.9 C 346.1 190.2 344.5 184.4 341.7 179.4 C 353.7 184.1 364.0 193.6 368.0 206.1 C 371.3 215.5 369.3 225.7 368.6 235.4 C 365.7 266.6 363.2 297.8 360.2 328.9 C 357.1 351.0 334.1 367.9 312.2 363.9 C 250.6 351.2 189.1 338.4 127.6 325.6 C 106.8 321.1 90.3 300.5 92.2 279.0 C 91.5 270.4 94.9 262.2 99.0 254.8 C 100.8 251.8 101.4 248.4 101.7 245.0 C 101.1 251.4 103.2 257.5 102.9 263.9 C 106.4 273.9 116.3 279.9 126.3 281.8 C 135.2 283.1 144.8 282.5 152.7 277.8 C 158.9 274.2 163.9 268.1 165.2 261.0 C 165.3 255.0 165.4 249.0 165.1 243.1 C 160.9 230.3 146.9 223.1 134.0 223.7 C 125.6 223.2 117.3 226.3 110.3 230.8 C 118.4 215.4 125.6 199.7 133.4 184.2 C 137.3 176.7 140.1 168.4 146.2 162.2 M 143.7 173.5 C 135.9 189.3 127.9 205.1 120.5 221.0 C 126.2 219.1 132.2 219.9 138.0 219.7 C 144.2 219.4 150.1 221.7 155.5 224.3 C 162.7 228.7 169.7 236.0 169.3 245.0 C 169.2 251.3 169.5 257.7 169.0 264.0 C 168.0 270.4 163.6 275.7 158.7 279.6 C 151.4 285.2 142.0 286.9 133.0 286.3 C 118.9 287.3 103.8 279.8 98.5 266.2 C 94.4 278.8 96.0 293.2 103.7 304.1 C 110.0 313.8 120.7 320.0 132.0 321.9 C 181.7 332.2 231.4 342.5 281.1 352.8 C 285.1 353.5 289.0 355.2 293.1 354.7 C 257.3 347.0 221.6 338.7 186.2 328.9 C 183.0 328.2 180.4 323.9 183.1 321.2 C 185.9 317.2 191.0 319.8 194.9 320.1 C 229.3 324.9 263.5 331.4 297.7 338.2 C 308.1 340.9 319.7 342.5 329.8 337.7 C 339.8 333.7 346.0 323.5 348.2 313.3 C 349.1 309.0 354.2 306.4 357.8 309.4 C 359.3 279.5 363.4 249.8 365.0 220.0 C 366.2 207.8 359.5 196.2 350.1 188.9 C 350.2 193.6 350.2 198.3 349.3 203.0 C 346.4 227.9 343.6 252.8 340.8 277.7 C 340.4 280.2 338.6 282.6 339.5 285.2 C 340.3 287.8 340.3 290.5 339.2 293.0 C 336.4 302.1 328.2 309.4 318.7 310.8 C 311.4 312.1 304.3 309.2 297.2 307.9 C 261.9 301.0 226.8 293.5 191.5 286.6 C 182.8 285.2 175.1 279.1 171.9 270.9 C 169.0 264.5 168.5 255.8 173.7 250.5 C 174.0 246.7 174.8 242.9 176.1 239.3 C 183.4 217.2 191.3 195.3 198.4 173.2 C 199.9 167.8 203.2 163.1 207.4 159.3 C 198.9 157.3 190.3 156.1 181.7 154.4 C 166.7 151.8 150.3 159.7 143.7 173.5 M 184.7 279.3 C 189.1 281.9 194.3 282.4 199.3 283.5 C 234.2 290.6 269.1 297.7 304.1 304.8 C 309.8 306.1 315.9 307.6 321.6 305.4 C 329.5 302.7 335.1 295.0 335.9 286.8 C 331.0 293.8 323.0 299.8 314.0 298.3 C 273.3 290.0 232.6 281.7 192.0 273.2 C 183.1 271.2 177.3 262.8 176.0 254.2 C 172.0 263.2 176.4 274.4 184.7 279.3 M 345.9 330.0 C 338.2 342.0 322.7 346.9 309.0 344.9 C 304.0 344.5 299.1 343.2 294.1 342.2 C 258.5 335.0 222.7 328.4 186.7 323.6 C 190.4 325.8 194.7 326.5 198.7 327.6 C 233.1 336.9 267.8 344.7 302.7 352.0 C 314.3 353.8 327.1 353.0 337.2 346.4 C 348.9 339.2 354.7 324.8 354.2 311.5 C 351.3 317.6 350.1 324.5 345.9 330.0 M 331.3 354.4 C 322.5 358.3 312.7 356.9 303.4 357.1 C 311.2 359.5 319.8 361.2 327.8 358.6 C 339.9 355.6 349.9 346.1 354.1 334.5 C 348.8 343.3 341.2 351.0 331.3 354.4 M 294.4 355.2 C 294.6 356.5 295.4 356.7 296.6 355.8 C 296.4 354.5 295.6 354.3 294.4 355.2 M 298.7 356.3 C 298.6 357.8 302.3 357.8 302.3 356.3 C 301.4 355.4 299.6 355.4 298.7 356.3 Z" />
<path fill="#000000" stroke="#000000" stroke-width="0.09375" opacity="1.00" d=" M 143.7 173.5 C 150.3 159.7 166.7 151.8 181.7 154.4 C 190.3 156.1 198.9 157.3 207.4 159.3 C 203.2 163.1 199.9 167.8 198.4 173.2 C 191.3 195.3 183.4 217.2 176.1 239.3 C 174.8 242.9 174.0 246.7 173.7 250.5 C 168.5 255.8 169.0 264.5 171.9 270.9 C 175.1 279.1 182.8 285.2 191.5 286.6 C 226.8 293.5 261.9 301.0 297.2 307.9 C 304.3 309.2 311.4 312.1 318.7 310.8 C 328.2 309.4 336.4 302.1 339.2 293.0 C 340.3 290.5 340.3 287.8 339.5 285.2 C 338.6 282.6 340.4 280.2 340.8 277.7 C 343.6 252.8 346.4 227.9 349.3 203.0 C 350.2 198.3 350.2 193.6 350.1 188.9 C 359.5 196.2 366.2 207.8 365.0 220.0 C 363.4 249.8 359.3 279.5 357.8 309.4 C 354.2 306.4 349.1 309.0 348.2 313.3 C 346.0 323.5 339.8 333.7 329.8 337.7 C 319.7 342.5 308.1 340.9 297.7 338.2 C 263.5 331.4 229.3 324.9 194.9 320.1 C 191.0 319.8 185.9 317.2 183.1 321.2 C 180.4 323.9 183.0 328.2 186.2 328.9 C 221.6 338.7 257.3 347.0 293.1 354.7 C 289.0 355.2 285.1 353.5 281.1 352.8 C 231.4 342.5 181.7 332.2 132.0 321.9 C 120.7 320.0 110.0 313.8 103.7 304.1 C 96.0 293.2 94.4 278.8 98.5 266.2 C 103.8 279.8 118.9 287.3 133.0 286.3 C 142.0 286.9 151.4 285.2 158.7 279.6 C 163.6 275.7 168.0 270.4 169.0 264.0 C 169.5 257.7 169.2 251.3 169.3 245.0 C 169.7 236.0 162.7 228.7 155.5 224.3 C 150.1 221.7 144.2 219.4 138.0 219.7 C 132.2 219.9 126.2 219.1 120.5 221.0 C 127.9 205.1 135.9 189.3 143.7 173.5 Z" />
<path fill="#ffffff" stroke="#ffffff" stroke-width="0.09375" opacity="1.00" d=" M 223.8 193.1 C 225.7 201.3 230.2 209.0 237.0 214.1 C 250.3 224.3 268.5 227.6 284.8 223.6 C 297.7 220.7 310.2 212.1 314.3 199.0 C 313.4 206.0 313.5 213.0 312.7 220.0 C 313.3 230.6 308.0 241.2 299.1 247.0 C 284.0 257.2 263.8 258.3 247.0 251.5 C 237.2 247.5 228.0 240.3 224.1 230.1 C 221.7 224.7 222.3 218.7 222.7 213.0 C 223.5 206.4 223.5 199.7 223.8 193.1 M 227.1 210.4 C 227.3 215.3 226.7 220.1 227.2 225.0 C 228.9 232.1 233.7 238.3 239.6 242.4 C 248.2 248.2 258.6 251.5 269.0 251.0 C 279.3 251.4 289.9 248.4 298.2 242.1 C 303.1 238.1 306.8 232.3 307.7 226.0 C 308.2 222.4 307.6 218.7 308.7 215.3 C 300.9 224.7 288.0 228.4 276.3 229.5 C 273.0 230.1 269.7 230.3 266.5 229.6 C 251.7 228.4 236.4 222.5 227.1 210.4 Z" />
<path fill="#000000" stroke="#000000" stroke-width="0.09375" opacity="1.00" d=" M 227.1 210.4 C 236.4 222.5 251.7 228.4 266.5 229.6 C 269.7 230.3 273.0 230.1 276.3 229.5 C 288.0 228.4 300.9 224.7 308.7 215.3 C 307.6 218.7 308.2 222.4 307.7 226.0 C 306.8 232.3 303.1 238.1 298.2 242.1 C 289.9 248.4 279.3 251.4 269.0 251.0 C 258.6 251.5 248.2 248.2 239.6 242.4 C 233.7 238.3 228.9 232.1 227.2 225.0 C 226.7 220.1 227.3 215.3 227.1 210.4 Z" />
<path fill="#ffffff" stroke="#ffffff" stroke-width="0.09375" opacity="1.00" d=" M 127.9 232.9 C 131.3 228.2 137.2 231.2 141.6 232.5 C 146.8 235.3 147.1 242.6 142.5 246.1 C 145.0 248.1 146.3 250.9 147.0 254.0 C 145.5 256.7 143.7 259.5 140.6 260.6 C 133.0 261.7 125.5 259.1 118.4 256.7 C 118.0 255.8 117.5 254.9 117.1 254.0 C 120.9 247.0 124.0 239.7 127.9 232.9 M 132.2 234.5 C 131.0 236.8 129.8 239.0 128.5 241.2 C 128.9 241.7 129.8 242.6 130.2 243.0 C 132.2 243.3 134.2 243.7 136.1 244.4 C 138.3 243.3 140.3 241.8 141.1 239.3 C 139.8 235.5 135.6 235.0 132.2 234.5 M 126.0 246.6 C 125.0 249.1 124.0 251.6 122.8 254.0 C 127.0 254.7 131.1 256.0 135.2 257.0 C 137.5 257.8 139.3 255.7 141.3 254.9 C 141.3 253.7 141.2 252.5 141.2 251.3 C 140.4 250.5 139.5 249.8 138.7 249.0 C 134.4 248.5 130.4 246.7 126.0 246.6 Z" />
<path fill="#000000" stroke="#000000" stroke-width="0.09375" opacity="1.00" d=" M 331.3 354.4 C 341.2 351.0 348.8 343.3 354.1 334.5 C 349.9 346.1 339.9 355.6 327.8 358.6 C 319.8 361.2 311.2 359.5 303.4 357.1 C 312.7 356.9 322.5 358.3 331.3 354.4 Z" />
<path fill="#000000" stroke="#000000" stroke-width="0.09375" opacity="1.00" d=" M 294.4 355.2 C 295.6 354.3 296.4 354.5 296.6 355.8 C 295.4 356.7 294.6 356.5 294.4 355.2 Z" />
<path fill="#000000" stroke="#000000" stroke-width="0.09375" opacity="1.00" d=" M 298.7 356.3 C 299.6 355.4 301.4 355.4 302.3 356.3 C 302.3 357.8 298.6 357.8 298.7 356.3 Z" />
</svg>
