<?xml version="1.0" encoding="UTF-8" ?>
<!DOCTYPE svg PUBLIC "-//W3C//DTD SVG 1.1//EN" "http://www.w3.org/Graphics/SVG/1.1/DTD/svg11.dtd">
<svg width="480pt" height="480pt" viewBox="0 0 480 480" version="1.1" xmlns="http://www.w3.org/2000/svg">
<path fill="#ffffff" stroke="#ffffff" stroke-width="0.09375" opacity="1.00" d=" M 334.1 69.0 C 335.4 69.3 336.4 68.5 337.3 67.7 C 337.7 68.0 338.6 68.5 339.0 68.8 C 381.7 68.8 424.5 68.4 467.3 68.6 C 435.7 124.5 403.7 180.1 371.9 235.9 C 369.4 239.7 368.1 244.1 365.7 247.9 C 343.5 286.3 321.2 324.9 299.3 363.2 C 280.1 396.5 261.3 430.0 242.0 463.3 C 216.0 419.7 190.5 375.9 164.7 332.2 C 163.4 330.2 162.5 327.9 160.5 326.4 C 145.0 299.9 129.5 273.4 114.0 247.0 C 111.6 242.7 109.0 238.6 106.9 234.2 C 75.6 181.0 44.3 127.9 13.1 74.8 C 12.1 73.2 11.0 71.6 10.4 69.8 C 12.5 69.1 14.8 69.6 17.0 69.5 C 122.7 69.3 228.4 68.9 334.1 69.0 Z" />
</svg>
