<?xml version="1.0" encoding="UTF-8" ?>
<!DOCTYPE svg PUBLIC "-//W3C//DTD SVG 1.1//EN" "http://www.w3.org/Graphics/SVG/1.1/DTD/svg11.dtd">
<svg width="480pt" height="480pt" viewBox="0 0 480 480" version="1.1" xmlns="http://www.w3.org/2000/svg">
<path fill="#ffffff" stroke="#ffffff" stroke-width="0.09375" opacity="1.00" d=" M 123.7 225.1 C 134.0 222.9 145.5 223.4 154.6 229.2 C 160.6 233.0 166.0 239.4 166.0 246.9 C 166.0 252.4 165.9 258.0 165.1 263.4 C 162.4 271.3 155.8 277.7 147.9 280.3 C 142.5 282.3 136.6 282.1 131.0 282.0 C 120.6 281.7 109.9 276.2 104.9 266.9 C 102.7 263.3 103.5 259.0 103.1 255.0 C 103.0 248.8 101.9 241.6 106.4 236.5 C 110.1 230.3 116.9 226.9 123.7 225.1 M 128.5 232.6 C 124.3 239.5 121.2 246.9 117.4 254.1 C 118.3 256.1 119.8 257.9 122.1 258.2 C 128.0 259.4 133.8 262.0 139.9 261.1 C 143.7 260.3 147.6 257.2 147.4 253.0 C 147.5 250.2 145.5 247.9 143.7 245.9 C 147.6 242.2 147.9 235.1 142.7 232.6 C 138.4 231.0 132.0 228.2 128.5 232.6 Z" />
<path fill="#ffffff" stroke="#ffffff" stroke-width="0.09375" opacity="1.00" d=" M 129.3 242.2 C 130.3 239.6 131.6 237.1 132.9 234.6 C 135.7 235.4 139.3 235.4 141.1 238.2 C 142.1 240.8 139.6 243.4 137.1 243.6 C 134.4 243.8 131.8 242.8 129.3 242.2 Z" />
<path fill="#ffffff" stroke="#ffffff" stroke-width="0.09375" opacity="1.00" d=" M 123.9 253.8 C 124.8 251.3 125.9 248.9 127.2 246.6 C 131.5 247.5 136.0 248.1 140.1 250.0 C 143.0 252.0 141.3 256.5 137.9 256.7 C 133.1 256.8 128.5 254.9 123.9 253.8 Z" />
</svg>
