<?xml version="1.0" encoding="UTF-8" ?>
<!DOCTYPE svg PUBLIC "-//W3C//DTD SVG 1.1//EN" "http://www.w3.org/Graphics/SVG/1.1/DTD/svg11.dtd">
<svg width="640pt" height="300pt" viewBox="0 0 640 300" version="1.1" xmlns="http://www.w3.org/2000/svg">
<g id="#ffffffff">
<path fill="#ffffff" opacity="1.00" d=" M 162.22 92.00 C 166.92 92.00 171.62 92.00 176.32 92.00 C 175.09 131.00 173.85 170.00 172.66 209.00 C 168.20 209.00 163.75 209.01 159.29 208.99 C 159.59 202.68 159.94 196.38 160.25 190.07 C 154.94 190.06 149.63 190.06 144.33 190.07 C 142.45 196.38 140.53 202.67 138.67 208.99 C 133.66 209.01 128.65 209.00 123.64 208.99 C 136.51 170.00 149.34 130.99 162.22 92.00 M 148.28 176.99 C 152.49 177.00 156.70 177.00 160.92 177.00 C 161.73 159.91 162.66 142.83 163.46 125.74 C 158.35 142.81 153.35 159.91 148.28 176.99 Z" />
<path fill="#ffffff" opacity="1.00" d=" M 200.70 92.00 C 205.45 92.00 210.21 92.00 214.96 92.00 C 208.76 126.67 202.58 161.33 196.38 196.00 C 202.14 196.00 207.90 196.00 213.66 196.00 C 212.87 200.33 212.08 204.67 211.29 209.00 C 200.70 209.00 190.11 209.00 179.52 209.00 C 186.56 170.00 193.64 131.00 200.70 92.00 Z" />
<path fill="#ffffff" opacity="1.00" d=" M 239.70 92.00 C 244.45 92.00 249.20 92.00 253.96 92.00 C 247.76 126.67 241.58 161.33 235.38 196.00 C 241.14 196.00 246.90 196.00 252.66 196.00 C 251.87 200.33 251.08 204.67 250.29 209.00 C 239.70 209.00 229.11 209.00 218.52 209.00 C 225.56 170.00 232.64 131.00 239.70 92.00 Z" />
<path fill="#ffffff" opacity="1.00" d=" M 303.47 102.71 C 304.35 96.78 309.92 92.00 315.91 92.02 C 322.64 91.97 329.36 91.99 336.09 92.01 C 342.21 91.74 347.44 97.97 346.30 103.96 C 344.64 113.80 342.81 123.61 341.04 133.43 C 336.51 133.44 331.98 133.45 327.45 133.42 C 328.83 124.97 330.74 116.59 331.83 108.10 C 331.74 104.55 327.48 105.00 325.01 105.01 C 321.69 104.83 316.69 104.77 316.07 109.07 C 311.04 136.72 306.02 164.39 301.21 192.08 C 300.66 195.34 304.37 196.44 306.93 196.04 C 310.24 195.85 315.59 197.02 316.70 192.71 C 319.24 180.55 321.28 168.27 323.64 156.07 C 321.06 156.07 318.48 156.05 315.90 156.04 C 316.67 151.70 317.47 147.35 318.26 143.01 C 325.38 142.99 332.51 143.00 339.64 143.00 C 336.25 161.43 332.91 179.86 329.50 198.28 C 328.51 204.54 322.40 209.40 316.08 209.01 C 309.08 208.89 302.07 209.24 295.09 208.83 C 288.86 207.86 285.47 200.85 286.91 195.04 C 292.42 164.27 297.92 133.48 303.47 102.71 Z" />
<path fill="#ffffff" opacity="1.00" d=" M 372.22 92.00 C 376.92 92.00 381.62 92.00 386.32 92.00 C 385.09 131.00 383.85 170.00 382.66 209.00 C 378.20 209.00 373.74 209.01 369.29 208.99 C 369.59 202.68 369.94 196.38 370.25 190.07 C 364.94 190.06 359.63 190.06 354.33 190.07 C 352.45 196.38 350.53 202.67 348.67 208.99 C 343.66 209.01 338.65 209.00 333.64 208.99 C 346.51 170.00 359.34 130.99 372.22 92.00 M 358.28 176.99 C 362.49 177.00 366.70 177.00 370.92 177.00 C 371.73 159.91 372.66 142.83 373.46 125.74 C 368.35 142.81 363.35 159.91 358.28 176.99 Z" />
<path fill="#ffffff" opacity="1.00" d=" M 410.79 92.00 C 416.40 92.00 422.02 92.00 427.64 92.01 C 427.43 119.86 426.97 147.72 426.85 175.57 C 436.35 147.77 445.52 119.85 454.88 92.00 C 461.38 92.00 467.88 91.99 474.38 92.01 C 467.32 131.00 460.25 170.00 453.20 209.00 C 448.46 209.00 443.73 209.00 439.01 209.00 C 443.12 185.39 447.53 161.84 451.45 138.20 C 443.19 161.70 435.45 185.38 427.45 208.98 C 423.44 209.00 419.43 209.01 415.43 208.99 C 415.75 184.61 416.03 160.23 416.33 135.85 C 412.04 160.21 407.89 184.59 403.73 208.98 C 398.99 209.01 394.25 209.00 389.52 208.99 C 396.58 169.99 403.71 131.00 410.79 92.00 Z" />
<path fill="#ffffff" opacity="1.00" d=" M 484.70 92.00 C 495.29 92.00 505.89 92.00 516.48 92.00 C 515.72 96.35 514.97 100.70 514.20 105.05 C 508.32 105.08 502.45 105.05 496.58 105.08 C 494.40 117.39 492.19 129.69 489.99 142.00 C 495.83 142.00 501.68 142.00 507.54 142.00 C 506.72 146.35 505.89 150.70 505.07 155.05 C 499.25 155.08 493.43 155.05 487.61 155.08 C 485.22 168.72 482.77 182.35 480.36 196.00 C 486.13 196.00 491.90 196.00 497.67 196.00 C 496.87 200.33 496.09 204.67 495.30 209.00 C 484.71 209.00 474.11 209.00 463.52 209.00 C 470.56 169.99 477.64 131.00 484.70 92.00 Z" />
<path fill="#ffffff" opacity="1.00" d=" M 522.18 104.33 C 522.62 97.82 528.29 92.01 534.92 92.02 C 541.64 91.97 548.36 91.98 555.09 92.02 C 561.17 91.85 566.46 97.95 565.33 103.97 C 563.73 113.66 561.88 123.31 560.19 133.00 C 555.60 133.00 551.01 133.00 546.42 132.99 C 547.83 124.92 549.40 116.87 550.72 108.78 C 551.47 106.08 548.32 104.65 546.08 105.04 C 542.26 105.10 536.02 103.92 535.06 109.07 C 533.80 117.10 530.41 125.77 534.51 133.53 C 539.59 143.01 545.86 151.84 550.44 161.60 C 555.89 171.96 550.06 183.41 549.04 194.14 C 548.71 200.70 544.90 207.70 537.89 208.79 C 530.25 209.25 522.56 208.95 514.91 208.95 C 509.00 208.78 504.90 202.57 505.79 196.98 C 507.24 186.95 509.21 177.00 510.86 167.00 C 515.40 167.00 519.94 167.00 524.48 167.00 C 523.09 175.14 521.56 183.25 520.21 191.39 C 519.49 193.72 521.42 196.28 523.92 195.97 C 528.23 196.13 535.36 197.10 536.04 191.14 C 536.69 183.19 541.34 174.62 536.94 167.05 C 531.60 156.77 525.84 146.70 520.82 136.26 C 516.15 125.94 521.09 114.87 522.18 104.33 Z" />
<path fill="#ffffff" opacity="1.00" d=" M 90.24 93.00 C 92.44 93.00 94.64 93.00 96.84 93.00 C 83.50 132.34 70.12 171.66 56.81 211.01 C 54.61 211.00 52.41 210.99 50.21 210.99 C 63.55 171.66 76.90 132.33 90.24 93.00 Z" />
</g>
</svg>
