<?xml version="1.0" encoding="UTF-8" ?>
<!DOCTYPE svg PUBLIC "-//W3C//DTD SVG 1.1//EN" "http://www.w3.org/Graphics/SVG/1.1/DTD/svg11.dtd">
<svg width="640pt" height="300pt" viewBox="0 0 640 300" version="1.1" xmlns="http://www.w3.org/2000/svg">
<g id="#ffffffff">
<path fill="#ffffff" opacity="1.00" d=" M 165.69 92.00 C 176.29 92.00 186.89 92.00 197.49 92.00 C 196.72 96.35 195.96 100.70 195.20 105.05 C 189.33 105.07 183.45 105.06 177.57 105.07 C 175.40 117.38 173.19 129.69 170.99 142.00 C 176.84 142.00 182.69 142.00 188.54 142.00 C 187.72 146.35 186.89 150.70 186.08 155.05 C 180.34 155.13 174.59 154.95 168.85 155.11 C 165.10 172.95 162.38 191.05 159.01 209.00 C 154.18 209.00 149.35 209.00 144.52 209.00 C 151.56 170.00 158.64 131.00 165.69 92.00 Z" />
<path fill="#ffffff" opacity="1.00" d=" M 215.21 92.00 C 219.91 92.00 224.62 92.00 229.32 92.00 C 228.09 131.00 226.85 170.00 225.65 209.00 C 221.20 209.00 216.74 209.00 212.29 208.99 C 212.60 202.68 212.93 196.37 213.26 190.06 C 207.95 190.06 202.63 190.06 197.33 190.06 C 195.45 196.38 193.53 202.67 191.67 208.99 C 186.66 209.01 181.65 209.00 176.64 209.00 C 189.51 170.00 202.35 130.99 215.21 92.00 M 201.27 177.00 C 205.49 177.00 209.70 177.00 213.92 177.00 C 214.73 159.92 215.67 142.84 216.46 125.76 C 211.34 142.82 206.35 159.92 201.27 177.00 Z" />
<path fill="#ffffff" opacity="1.00" d=" M 242.92 92.00 C 247.37 92.00 251.82 92.00 256.27 92.00 C 254.98 119.87 253.52 147.72 252.29 175.59 C 260.59 147.75 268.70 119.86 276.92 92.00 C 281.93 92.00 286.94 92.00 291.95 92.00 C 279.14 130.99 266.26 169.97 253.49 208.98 C 248.47 209.02 243.45 208.99 238.44 209.00 C 239.92 170.00 241.43 131.00 242.92 92.00 Z" />
<path fill="#ffffff" opacity="1.00" d=" M 306.26 92.32 C 313.83 91.60 321.49 92.16 329.10 92.01 C 335.65 91.73 340.80 98.75 339.21 104.97 C 333.65 136.06 328.10 167.15 322.51 198.24 C 321.51 204.52 315.40 209.40 309.06 209.01 C 302.06 208.89 295.04 209.25 288.06 208.82 C 281.83 207.82 278.48 200.81 279.93 195.01 C 285.46 164.18 290.96 133.35 296.53 102.53 C 297.34 97.57 301.41 93.46 306.26 92.32 M 312.25 105.36 C 309.81 106.03 308.99 108.60 308.70 110.83 C 303.95 137.63 299.07 164.41 294.32 191.21 C 293.34 194.10 296.11 196.59 298.92 196.01 C 302.73 195.90 309.21 197.25 309.92 191.90 C 314.94 164.27 319.97 136.63 324.79 108.97 C 324.85 102.74 316.19 105.44 312.25 105.36 Z" />
<path fill="#ffffff" opacity="1.00" d=" M 350.53 92.00 C 361.05 92.02 371.57 91.96 382.09 92.02 C 388.11 91.85 393.58 97.94 392.35 103.93 C 390.13 116.52 387.94 129.12 385.59 141.69 C 384.89 146.08 381.37 149.30 377.31 150.71 C 381.53 153.24 382.91 158.33 381.90 162.95 C 379.21 178.31 376.29 193.64 373.55 208.99 C 368.73 209.00 363.90 209.00 359.08 209.00 C 361.78 192.47 365.43 176.02 367.54 159.43 C 364.65 154.76 357.66 158.01 353.06 157.07 C 349.97 174.37 346.99 191.69 343.92 209.00 C 339.14 209.00 334.36 209.00 329.59 209.00 C 336.56 170.00 343.57 131.01 350.53 92.00 M 362.51 105.07 C 360.21 117.71 357.91 130.35 355.60 142.99 C 360.66 142.11 368.67 145.51 371.41 139.63 C 373.51 129.12 375.60 118.55 377.18 107.95 C 375.05 102.44 367.10 106.10 362.51 105.07 Z" />
<path fill="#ffffff" opacity="1.00" d=" M 404.78 92.00 C 409.49 92.00 414.20 92.00 418.90 92.00 C 411.84 130.99 404.73 169.98 397.73 208.98 C 392.99 209.01 388.25 209.00 383.52 209.00 C 390.58 170.00 397.71 131.01 404.78 92.00 Z" />
<path fill="#ffffff" opacity="1.00" d=" M 425.09 92.00 C 436.45 92.00 447.80 91.99 459.16 92.00 C 458.32 96.35 457.46 100.70 456.63 105.05 C 453.39 105.05 450.15 105.07 446.92 105.07 C 440.67 139.71 434.42 174.35 428.18 209.00 C 423.40 209.00 418.62 209.00 413.84 209.00 C 420.13 174.35 426.45 139.71 432.75 105.06 C 429.40 105.07 426.06 105.06 422.72 105.05 C 423.50 100.70 424.30 96.35 425.09 92.00 Z" />
<path fill="#ffffff" opacity="1.00" d=" M 466.69 92.00 C 477.29 92.00 487.89 92.00 498.49 92.00 C 497.72 96.35 496.96 100.70 496.20 105.05 C 490.33 105.07 484.45 105.06 478.57 105.07 C 476.40 117.38 474.19 129.69 471.99 142.00 C 477.84 142.00 483.69 142.00 489.54 142.00 C 488.72 146.35 487.89 150.70 487.08 155.06 C 481.25 155.07 475.42 155.05 469.60 155.08 C 467.23 168.73 464.77 182.36 462.36 196.00 C 468.13 195.99 473.90 196.01 479.67 196.00 C 478.87 200.33 478.09 204.66 477.30 209.00 C 466.71 209.00 456.11 209.00 445.52 209.00 C 452.56 170.00 459.64 131.00 466.69 92.00 Z" />
<path fill="#ffffff" opacity="1.00" d=" M 504.04 105.10 C 504.35 98.67 509.34 92.58 515.94 92.08 C 522.98 91.89 530.04 92.02 537.09 92.02 C 543.16 91.85 548.46 97.94 547.33 103.95 C 545.74 113.65 543.87 123.31 542.19 133.00 C 537.60 133.00 533.01 133.00 528.42 133.00 C 529.78 124.41 531.85 115.91 532.78 107.28 C 530.68 103.47 525.44 105.51 521.94 105.10 C 517.10 104.94 516.64 110.45 516.09 114.01 C 514.83 120.44 513.17 127.43 516.51 133.55 C 522.34 144.81 530.60 154.96 534.46 167.17 C 535.64 176.83 531.83 186.28 530.74 195.83 C 530.36 202.18 525.63 208.32 519.05 208.90 C 511.67 209.11 504.27 209.02 496.89 208.95 C 490.99 208.77 486.91 202.58 487.78 197.00 C 489.23 186.96 491.22 177.01 492.86 167.00 C 497.40 167.00 501.94 167.00 506.48 167.00 C 505.10 175.12 503.56 183.21 502.22 191.34 C 501.49 193.69 503.39 196.28 505.92 195.97 C 510.24 196.13 517.40 197.10 518.05 191.10 C 518.71 183.17 523.32 174.61 518.94 167.05 C 513.61 156.78 507.85 146.71 502.83 136.28 C 498.21 126.22 502.95 115.38 504.04 105.10 Z" />
<path fill="#ffffff" opacity="1.00" d=" M 108.23 93.00 C 110.44 93.00 112.64 92.99 114.84 93.00 C 101.50 132.34 88.12 171.66 74.81 211.00 C 72.61 211.00 70.41 211.00 68.21 210.99 C 81.55 171.66 94.90 132.34 108.23 93.00 Z" />
</g>
</svg>
