<?xml version="1.0" encoding="UTF-8" ?>
<!DOCTYPE svg PUBLIC "-//W3C//DTD SVG 1.1//EN" "http://www.w3.org/Graphics/SVG/1.1/DTD/svg11.dtd">
<svg width="640pt" height="300pt" viewBox="0 0 640 300" version="1.1" xmlns="http://www.w3.org/2000/svg">
<g id="#ffffffff">
<path fill="#ffffff" opacity="1.00" d=" M 120.71 92.00 C 125.46 92.00 130.21 91.99 134.96 92.01 C 128.77 126.67 122.57 161.33 116.39 195.99 C 122.14 196.01 127.90 195.99 133.66 196.00 C 132.87 200.34 132.09 204.67 131.28 209.00 C 120.69 209.00 110.10 209.01 99.52 208.99 C 106.57 169.99 113.62 130.99 120.71 92.00 Z" />
<path fill="#ffffff" opacity="1.00" d=" M 176.22 92.00 C 180.92 92.00 185.62 92.00 190.32 92.01 C 189.10 131.00 187.85 169.99 186.66 208.99 C 182.20 209.01 177.75 209.01 173.30 208.99 C 173.58 202.68 173.94 196.38 174.25 190.07 C 168.94 190.06 163.63 190.05 158.32 190.08 C 156.46 196.38 154.53 202.67 152.68 208.97 C 147.67 209.02 142.66 209.00 137.65 208.99 C 150.51 170.00 163.34 130.99 176.22 92.00 M 162.28 176.99 C 166.49 177.00 170.71 177.00 174.92 177.00 C 175.72 159.92 176.67 142.86 177.45 125.78 C 172.34 142.83 167.35 159.92 162.28 176.99 Z" />
<path fill="#ffffff" opacity="1.00" d=" M 209.05 105.09 C 209.34 98.67 214.35 92.59 220.94 92.08 C 227.98 91.90 235.04 92.02 242.09 92.01 C 248.16 91.85 253.45 97.94 252.34 103.94 C 250.72 113.64 248.89 123.31 247.19 132.99 C 242.60 133.01 238.01 133.00 233.43 132.99 C 234.79 124.41 236.83 115.91 237.79 107.28 C 236.22 103.89 231.89 105.36 228.96 105.03 C 226.10 104.67 222.46 105.79 222.05 109.08 C 220.88 116.90 217.53 125.23 221.21 132.87 C 226.98 144.44 235.53 154.71 239.46 167.16 C 240.64 176.83 236.82 186.28 235.73 195.84 C 235.37 202.20 230.62 208.31 224.05 208.90 C 216.67 209.10 209.28 209.01 201.90 208.95 C 196.00 208.76 191.91 202.58 192.78 196.99 C 194.25 186.97 196.20 177.01 197.86 167.01 C 202.40 166.99 206.94 167.00 211.48 167.01 C 210.09 175.12 208.58 183.21 207.22 191.33 C 206.46 193.67 208.41 196.30 210.93 195.97 C 215.25 196.13 222.41 197.10 223.06 191.09 C 223.69 183.15 228.34 174.60 223.94 167.04 C 218.60 156.77 212.85 146.70 207.82 136.28 C 203.21 126.21 207.95 115.38 209.05 105.09 Z" />
<path fill="#ffffff" opacity="1.00" d=" M 262.10 92.00 C 273.45 92.01 284.80 91.99 296.16 92.01 C 295.32 96.35 294.47 100.69 293.63 105.03 C 290.39 105.07 287.16 105.06 283.93 105.07 C 277.66 139.71 271.44 174.35 265.18 208.99 C 260.40 209.01 255.62 209.01 250.85 208.99 C 257.12 174.34 263.47 139.71 269.73 105.06 C 266.40 105.06 263.06 105.07 259.73 105.04 C 260.50 100.69 261.29 96.34 262.10 92.00 Z" />
<path fill="#ffffff" opacity="1.00" d=" M 326.71 92.00 C 336.83 92.01 346.95 91.99 357.07 92.00 C 363.34 91.54 369.15 97.85 367.75 104.08 C 365.29 118.17 362.71 132.24 360.17 146.31 C 359.29 152.12 353.98 156.92 348.08 157.00 C 341.78 157.18 335.49 156.99 329.19 157.08 C 326.05 174.37 322.82 191.66 319.72 208.96 C 314.98 209.03 310.24 209.00 305.51 208.99 C 312.55 169.99 319.62 130.99 326.71 92.00 M 338.42 105.08 C 336.08 118.05 333.71 131.02 331.36 143.99 C 336.45 143.11 343.93 146.36 347.20 141.12 C 349.55 130.14 351.61 119.04 353.36 107.94 C 351.09 102.38 343.12 106.14 338.42 105.08 Z" />
<path fill="#ffffff" opacity="1.00" d=" M 379.71 92.00 C 384.46 92.00 389.21 91.99 393.96 92.01 C 387.77 126.67 381.57 161.33 375.39 195.99 C 381.14 196.01 386.90 195.99 392.66 196.00 C 391.86 200.34 391.09 204.67 390.28 209.00 C 379.69 209.00 369.10 209.01 358.52 208.99 C 365.57 169.99 372.62 130.99 379.71 92.00 Z" />
<path fill="#ffffff" opacity="1.00" d=" M 434.22 92.00 C 438.91 92.00 443.61 92.00 448.32 92.01 C 447.10 131.00 445.85 169.99 444.66 208.99 C 440.20 209.01 435.75 209.01 431.30 208.99 C 431.58 202.68 431.94 196.38 432.25 190.07 C 426.94 190.06 421.63 190.05 416.32 190.08 C 414.46 196.38 412.53 202.67 410.68 208.97 C 405.67 209.02 400.66 209.00 395.65 208.99 C 408.51 170.00 421.34 130.99 434.22 92.00 M 420.28 176.99 C 424.49 177.00 428.70 177.00 432.92 177.00 C 433.72 159.92 434.67 142.86 435.45 125.78 C 430.34 142.83 425.35 159.92 420.28 176.99 Z" />
<path fill="#ffffff" opacity="1.00" d=" M 459.52 92.01 C 464.22 91.99 468.92 92.00 473.63 92.01 C 473.56 109.22 473.54 126.43 473.43 143.64 C 480.51 126.48 487.36 109.23 494.31 92.02 C 499.29 91.98 504.27 92.00 509.26 92.00 C 498.62 115.79 487.75 139.49 477.24 163.33 C 474.12 178.48 471.67 193.78 468.81 208.99 C 464.08 209.01 459.35 209.01 454.62 208.99 C 457.28 194.00 460.21 179.05 462.71 164.03 C 461.97 140.02 460.51 116.02 459.52 92.01 Z" />
<path fill="#ffffff" opacity="1.00" d=" M 515.71 92.00 C 526.30 92.00 536.89 91.99 547.48 92.00 C 546.72 96.35 545.97 100.70 545.20 105.04 C 539.32 105.10 533.44 105.01 527.56 105.10 C 525.41 117.40 523.18 129.69 520.99 141.99 C 526.84 142.01 532.68 141.99 538.53 142.01 C 537.72 146.35 536.90 150.70 536.07 155.05 C 530.23 155.12 524.38 154.96 518.55 155.15 C 516.27 168.79 513.73 182.37 511.37 195.99 C 517.13 196.01 522.90 195.99 528.66 196.00 C 527.87 200.34 527.10 204.67 526.29 209.00 C 515.70 209.00 505.11 209.01 494.52 208.99 C 501.57 169.99 508.62 130.99 515.71 92.00 Z" />
<path fill="#ffffff" opacity="1.00" d=" M 557.66 92.00 C 568.47 92.03 579.28 91.94 590.10 92.03 C 596.18 92.11 601.19 98.48 599.66 104.42 C 594.08 135.62 588.45 166.81 582.84 198.00 C 582.00 204.12 576.33 209.26 570.07 209.00 C 558.87 209.01 547.67 209.00 536.47 208.99 C 543.53 170.00 550.58 131.00 557.66 92.00 M 569.31 105.08 C 563.83 135.38 558.29 165.68 552.80 195.99 C 558.24 194.94 566.58 198.71 569.86 192.83 C 575.22 165.29 579.93 137.60 585.06 110.01 C 585.66 108.17 585.14 105.55 582.93 105.19 C 578.40 104.86 573.85 105.15 569.31 105.08 Z" />
<path fill="#ffffff" opacity="1.00" d=" M 64.23 93.01 C 66.43 93.00 68.64 93.00 70.84 93.00 C 57.50 132.34 44.12 171.66 30.80 211.01 C 28.61 211.00 26.41 211.00 24.22 210.99 C 37.54 171.66 50.90 132.34 64.23 93.01 Z" />
</g>
</svg>
