<?xml version="1.0" encoding="UTF-8" ?>
<!DOCTYPE svg PUBLIC "-//W3C//DTD SVG 1.1//EN" "http://www.w3.org/Graphics/SVG/1.1/DTD/svg11.dtd">
<svg width="640pt" height="480pt" viewBox="0 0 640 480" version="1.1" xmlns="http://www.w3.org/2000/svg">
<path fill="#ffffff" stroke="#ffffff" stroke-width="0.09375" opacity="1.00" d=" M 114.0 131.7 C 124.2 131.5 134.5 131.1 144.7 130.7 C 145.2 146.1 145.4 161.5 145.9 176.9 C 157.2 177.0 168.5 177.0 179.7 176.9 C 180.1 161.9 180.1 146.8 180.4 131.7 C 190.4 131.7 200.5 131.1 210.5 132.7 C 211.2 172.9 210.6 213.1 210.8 253.3 C 200.8 253.3 190.9 253.4 180.9 253.2 C 180.4 237.3 180.2 221.3 179.7 205.4 C 168.1 204.8 156.6 204.4 145.0 204.0 C 144.8 220.5 145.0 236.9 144.9 253.3 C 134.3 253.3 123.6 253.4 113.0 253.3 C 113.2 212.7 113.3 172.2 114.0 131.7 Z" />
<path fill="#ffffff" stroke="#ffffff" stroke-width="0.09375" opacity="1.00" d=" M 585.0 131.7 C 598.9 127.6 613.6 129.8 627.7 131.7 C 627.9 141.1 627.7 150.5 627.8 159.9 C 619.2 159.8 610.6 159.1 602.0 159.0 C 596.4 159.1 590.0 161.1 587.4 166.4 C 586.9 169.5 589.7 171.6 592.0 173.1 C 601.3 178.8 612.6 180.4 622.1 186.0 C 628.8 189.5 634.8 195.0 637.6 202.2 C 643.4 218.3 637.8 238.7 622.8 247.8 C 614.0 253.6 603.3 255.2 593.0 255.7 C 582.8 256.1 572.2 256.7 562.4 253.5 C 559.8 252.6 559.3 249.5 559.2 247.1 C 558.9 239.2 559.1 231.3 559.0 223.4 C 570.7 226.4 583.0 227.3 595.0 226.2 C 600.2 225.6 605.8 223.2 608.0 218.1 C 608.0 215.5 605.9 213.6 603.8 212.3 C 592.0 204.9 577.2 203.7 566.3 194.7 C 554.4 181.8 553.8 160.7 563.5 146.5 C 568.5 139.0 576.6 134.3 585.0 131.7 Z" />
<path fill="#ffffff" stroke="#ffffff" stroke-width="0.09375" opacity="1.00" d=" M 0.0 130.3 C 21.6 131.4 43.4 130.4 64.9 133.5 C 75.4 135.2 83.8 142.9 89.7 151.3 C 101.5 168.1 100.2 192.5 87.5 208.4 C 80.7 217.2 70.5 223.2 59.7 225.5 C 50.6 227.4 41.3 226.4 32.1 226.7 C 31.8 235.6 32.1 244.4 31.9 253.3 C 21.3 253.4 10.6 253.3 0.0 253.3 L 0.0 130.3 M 32.5 165.0 C 31.6 176.8 32.1 188.6 32.1 200.4 C 40.6 200.5 49.9 199.4 56.7 193.7 C 65.9 185.9 65.1 169.5 55.2 162.7 C 49.8 159.1 43.3 157.6 36.9 157.5 C 33.6 158.3 32.8 162.1 32.5 165.0 Z" />
<path fill="#ffffff" stroke="#ffffff" stroke-width="0.09375" opacity="1.00" d=" M 242.0 131.7 C 252.3 131.5 262.6 131.1 272.9 130.7 C 272.9 171.6 272.9 212.4 272.9 253.3 C 262.3 253.3 251.6 253.4 241.0 253.3 C 241.2 212.7 241.3 172.2 242.0 131.7 Z" />
<path fill="#ffffff" stroke="#ffffff" stroke-width="0.09375" opacity="1.00" d=" M 304.1 131.6 C 314.4 131.5 324.7 131.1 335.0 130.7 C 335.4 162.2 335.4 193.8 336.1 225.3 C 346.7 225.6 357.3 225.7 367.9 226.0 C 368.4 235.1 368.8 244.2 369.0 253.3 C 347.0 253.4 325.0 253.4 303.1 253.3 C 303.3 212.7 303.4 172.2 304.1 131.6 Z" />
<path fill="#ffffff" stroke="#ffffff" stroke-width="0.09375" opacity="1.00" d=" M 385.0 131.7 C 395.3 131.4 405.6 131.1 416.0 130.7 C 416.0 171.6 416.0 212.4 416.0 253.3 C 405.3 253.4 394.7 253.4 384.0 253.3 C 384.1 212.8 384.5 172.2 385.0 131.7 Z" />
<path fill="#ffffff" stroke="#ffffff" stroke-width="0.09375" opacity="1.00" d=" M 447.1 131.7 C 466.4 131.8 485.8 131.0 505.1 132.4 C 516.6 133.2 527.8 139.0 534.8 148.2 C 547.5 165.7 547.1 191.6 533.6 208.6 C 527.4 216.8 518.0 222.4 508.0 224.7 C 498.2 227.2 488.1 226.5 478.1 226.7 C 478.0 235.5 478.2 244.4 478.1 253.2 C 467.4 253.4 456.8 253.3 446.1 253.3 C 446.3 212.8 446.6 172.2 447.1 131.7 M 478.7 164.2 C 477.6 176.2 478.2 188.3 478.2 200.4 C 487.6 200.3 498.1 199.1 505.2 192.2 C 510.7 184.4 511.7 172.4 504.8 165.1 C 499.2 159.9 491.3 158.1 483.9 157.4 C 480.4 157.3 479.0 161.3 478.7 164.2 Z" />
<path fill="#ffffff" stroke="#ffffff" stroke-width="0.09375" opacity="1.00" d=" M 67.3 282.1 C 95.0 275.0 123.8 277.4 152.0 277.0 C 184.9 276.4 218.3 281.2 248.8 294.0 C 258.3 297.7 267.0 303.6 273.5 311.6 C 262.8 311.7 252.0 311.9 241.2 311.2 C 232.9 310.5 225.7 306.0 218.2 302.8 C 204.0 296.6 188.4 294.6 173.1 293.0 C 138.0 289.5 102.1 290.6 67.8 299.4 C 56.6 302.1 45.9 307.7 38.2 316.2 C 36.4 318.2 34.9 321.6 37.1 323.8 C 46.7 336.2 62.1 342.0 77.0 345.1 C 105.6 351.0 135.0 351.6 164.0 349.7 C 182.3 349.0 200.7 346.7 217.8 339.9 C 225.3 337.3 232.1 332.8 240.0 331.3 C 251.2 329.6 262.5 330.5 273.7 330.7 C 268.0 336.0 262.3 341.6 255.4 345.3 C 241.9 352.7 226.9 356.6 212.0 359.6 C 191.5 363.6 170.7 366.0 149.9 367.2 C 130.3 368.8 110.7 365.9 91.2 364.2 C 67.4 360.9 43.1 356.7 21.6 345.3 C 13.6 341.1 5.8 335.1 2.4 326.5 C 0.2 321.1 1.7 314.7 5.3 310.2 C 11.8 301.9 21.6 297.2 31.0 292.9 C 42.7 288.2 55.0 284.7 67.3 282.1 Z" />
<path fill="#ffffff" stroke="#ffffff" stroke-width="0.09375" opacity="1.00" d=" M 282.4 281.4 C 327.3 281.3 372.2 280.8 417.0 283.1 C 439.1 284.6 461.4 287.5 482.0 296.0 C 489.8 299.3 497.8 303.1 503.4 309.6 C 507.3 314.0 509.8 320.2 508.1 326.0 C 505.9 335.1 498.3 341.8 490.4 346.3 C 470.1 356.3 447.6 361.4 425.1 362.3 C 377.6 364.0 330.0 363.8 282.4 364.6 C 282.2 336.9 282.3 309.1 282.4 281.4 M 312.5 296.4 C 312.4 314.1 312.4 331.8 312.5 349.6 C 351.1 348.9 389.7 348.9 428.2 347.0 C 442.2 346.1 456.5 342.4 468.0 334.1 C 471.9 331.1 476.4 326.6 475.2 321.1 C 471.8 312.3 463.0 306.9 454.2 304.5 C 428.9 297.1 402.2 297.5 376.0 296.7 C 354.8 296.2 333.7 296.3 312.5 296.4 Z" />
<path fill="#ffffff" stroke="#ffffff" stroke-width="0.09375" opacity="1.00" d=" M 611.8 281.3 C 620.5 281.3 629.2 281.3 637.9 281.3 C 638.1 287.6 638.0 294.0 638.0 300.3 C 629.2 300.3 620.5 300.4 611.7 300.3 C 611.6 294.0 611.5 287.6 611.8 281.3 Z" />
<path fill="#ffffff" stroke="#ffffff" stroke-width="0.09375" opacity="1.00" d=" M 125.5 310.9 C 137.6 309.6 149.9 310.0 161.7 313.1 C 165.2 314.1 169.2 315.6 170.7 319.2 C 171.6 322.1 169.7 325.0 167.4 326.5 C 161.9 330.4 155.1 331.7 148.5 332.7 C 135.9 334.8 122.7 333.3 111.1 328.0 C 107.1 326.2 104.5 320.4 108.0 317.0 C 112.6 312.5 119.5 311.7 125.5 310.9 M 124.1 315.5 C 120.2 316.2 115.9 316.9 113.2 320.0 C 112.8 322.6 115.7 324.1 117.7 324.9 C 128.5 328.8 140.3 328.9 151.5 327.2 C 155.9 326.6 160.6 325.3 163.8 322.1 C 163.8 319.5 161.0 318.6 159.1 317.7 C 148.0 313.2 135.7 313.7 124.1 315.5 Z" />
<path fill="#ffffff" stroke="#ffffff" stroke-width="0.09375" opacity="1.00" d=" M 611.8 311.7 C 620.6 311.6 629.3 311.6 638.1 311.8 C 638.1 329.2 638.1 346.7 638.1 364.2 C 629.3 364.4 620.6 364.4 611.8 364.3 C 611.7 346.7 611.7 329.2 611.8 311.7 Z" />
<path fill="#ffffff" stroke="#ffffff" stroke-width="0.09375" opacity="1.00" d=" M 526.3 316.2 C 529.7 315.0 533.4 316.2 536.8 316.7 C 553.8 320.2 571.2 321.9 588.1 326.1 C 567.5 329.6 546.9 333.4 526.1 335.9 C 525.3 329.5 524.0 322.5 526.3 316.2 Z" />
</svg>
